<svg width="16" height="16" viewBox="0 0 16 16" fill="none" xmlns="http://www.w3.org/2000/svg">
<g id="Add" clip-path="url(#clip0_17698_4304)">
<path id="Enquiries" fill-rule="evenodd" clip-rule="evenodd" d="M8 0C3.58174 0 0 3.58174 0 8C0 12.4179 3.58181 15.9996 8 15.9996C12.4182 15.9996 16 12.4179 16 8C16 3.58174 12.4183 0 8 0ZM8 1.25346C11.726 1.25346 14.7465 4.27401 14.7465 8C14.7465 11.7257 11.7259 14.7462 8 14.7462C4.27406 14.7462 1.25346 11.7257 1.25346 8C1.25346 4.27401 4.27401 1.25346 8 1.25346ZM7.92 3.2C8.31764 3.2 8.64 3.52235 8.64 3.92V7.1992L12.08 7.2C12.4776 7.2 12.8 7.52235 12.8 7.92C12.8 8.31764 12.4776 8.64 12.08 8.64L8.64 8.6392V12.08C8.64 12.4776 8.31764 12.8 7.92 12.8C7.52235 12.8 7.2 12.4776 7.2 12.08V8.6392L3.92 8.64C3.52236 8.64 3.2 8.31764 3.2 7.92C3.2 7.52235 3.52236 7.2 3.92 7.2L7.2 7.1992V3.92C7.2 3.52235 7.52235 3.2 7.92 3.2Z" fill="#FFFFFF"/>
</g>
<defs>
<clipPath id="clip0_17698_4304">
<rect width="16" height="16" fill="white"/>
</clipPath>
</defs>
</svg>
