<svg width="20" height="20" viewBox="0 0 20 20" fill="none" xmlns="http://www.w3.org/2000/svg">
<path fill-rule="evenodd" clip-rule="evenodd" d="M14.6667 2H5.33333L0 8V15.3333C0.0324522 16.7924 1.20756 17.9675 2.66667 18H17.3333C18.7924 17.9675 19.9675 16.7924 20 15.3333V8.02667L14.6667 2ZM6 3.33333H14L18 8H13.3333C13.3333 10.6667 11.84 12 10 12C8.16 12 6.66667 10.6667 6.66667 8H2L6 3.33333ZM18.6667 15.3333C18.4925 15.9841 17.9841 16.4925 17.3333 16.6667H2.66667C2.01585 16.4925 1.50751 15.9841 1.33333 15.3333V9.33333H5.33333C5.33333 11.36 7.88667 13.3333 9.97333 13.3333C12.06 13.3333 14.6667 11.36 14.6667 9.33333H18.6667V15.3333Z" fill="#475467"/>
</svg>
