<svg width="20" height="20" viewBox="0 0 20 20" fill="none" xmlns="http://www.w3.org/2000/svg">
<g id="Arrow Down">
<path id="Arrow-down" fill-rule="evenodd" clip-rule="evenodd" d="M14.3294 6.24703L9.33333 10.8745L4.28235 6.19213C4.0991 6.02844 3.8614 5.93895 3.61569 5.94115C3.11107 5.92171 2.68622 6.31497 2.66667 6.81958C2.66778 7.05375 2.76404 7.2774 2.93333 7.43919L8.65098 12.7333C8.83582 12.9064 9.0801 13.0019 9.33333 13H9.34118C9.59441 13.0019 9.83869 12.9064 10.0235 12.7333L15.7412 7.43919L15.7333 7.43134C15.9034 7.27333 16 7.0517 16 6.81958C15.9805 6.31497 15.5556 5.92171 15.051 5.94115C14.7782 5.93759 14.5165 6.04854 14.3294 6.24703Z" fill="#475467"/>
</g>
</svg>
