<svg width="20" height="20" viewBox="0 0 20 20" fill="none" xmlns="http://www.w3.org/2000/svg">
<path fill-rule="evenodd" clip-rule="evenodd" d="M4.67059 12.753L9.66667 8.12552L14.7176 12.8079C14.9009 12.9716 15.1386 13.0611 15.3843 13.0589C15.8889 13.0783 16.3138 12.685 16.3333 12.1804C16.3322 11.9463 16.236 11.7226 16.0667 11.5608L10.349 6.26669C10.1642 6.0936 9.9199 5.99813 9.66667 6.00003H9.65882C9.40559 5.99813 9.16131 6.0936 8.97647 6.26669L3.25882 11.5608L3.26667 11.5687C3.09664 11.7267 3.00003 11.9483 3 12.1804C3.01955 12.685 3.4444 13.0783 3.94902 13.0589C4.22176 13.0624 4.4835 12.9515 4.67059 12.753Z" fill="#475467"/>
</svg>
