<svg width="20" height="20" viewBox="0 0 20 20" fill="none" xmlns="http://www.w3.org/2000/svg">
<path fill-rule="evenodd" clip-rule="evenodd" d="M19 11H3.42006L8.71004 16.2899C9.10216 16.6821 9.10216 17.3178 8.71004 17.7099C8.31792 18.1021 7.68217 18.1021 7.29005 17.7099L0.300072 10.71C0.108238 10.5236 0 10.2675 0 9.99997C0 9.73249 0.108238 9.47638 0.300072 9.28997L7.29005 2.29C7.48124 2.10658 7.73512 2.00289 8.00004 2C8.26534 2.00104 8.51988 2.10501 8.71004 2.29C9.10002 2.68301 9.10002 3.31699 8.71004 3.70999L3.42006 8.99997H19C19.5523 8.99997 20 9.44769 20 9.99997C20 10.5523 19.5523 11 19 11Z" fill="#475467"/>
</svg>
