<svg width="16" height="16" viewBox="0 0 16 16" fill="none" xmlns="http://www.w3.org/2000/svg">
<g id="Calendar" clip-path="url(#clip0_18665_10571)">
<path id="Calendar_2" fill-rule="evenodd" clip-rule="evenodd" d="M15.2 16H0.8C0.358172 16 0 15.6418 0 15.2V2.93333C0 2.49151 0.358172 2.13333 0.8 2.13333H2.66667V2.66667C2.66667 3.55032 3.38301 4.26667 4.26667 4.26667C5.15032 4.26667 5.86667 3.55032 5.86667 2.66667V2.13333H10.1333V2.66667C10.0833 3.10444 10.2358 3.54111 10.5473 3.85267C10.8589 4.16424 11.2956 4.31666 11.7333 4.26667C12.7627 4.26667 13.3333 4.22933 13.3333 3.2V2.13333H15.2C15.6418 2.13333 16 2.49151 16 2.93333V15.2C16 15.6418 15.6418 16 15.2 16ZM14.9333 5.33333H1.06667V14.9333H14.9333V5.33333ZM11.7333 3.2C11.2907 3.2 11.2 2.576 11.2 2.13333V1.06667C11.2 0.624 11.2907 0 11.7333 0C12.176 0 12.2667 0.624 12.2667 1.06667V2.13333C12.2667 2.576 12.176 3.2 11.7333 3.2ZM4.26667 3.2C3.824 3.2 3.73333 2.576 3.73333 2.13333V1.06667C3.73333 0.624 3.824 0 4.26667 0C4.70933 0 4.8 0.624 4.8 1.06667V2.13333C4.8 2.576 4.70933 3.2 4.26667 3.2Z" fill="#475467"/>
</g>
<defs>
<clipPath id="clip0_18665_10571">
<rect width="16" height="16" fill="white"/>
</clipPath>
</defs>
</svg>
