<svg width="20" height="20" viewBox="0 0 20 20" fill="none" xmlns="http://www.w3.org/2000/svg">
<path fill-rule="evenodd" clip-rule="evenodd" d="M15.6 5.8L11.4007 10L15.6 14.2L16.3 14.9C16.5233 15.1233 17 15.4236 17 15.7645C17 16.447 16.4477 17.0007 15.7652 17.0007C15.4236 17.0007 15.124 16.5233 14.9007 16.3L14.2 15.6L10 11.4007L5.8 15.6L5.1 16.3C4.8767 16.5233 4.5764 17.0007 4.2355 17.0007C3.553 17.0007 3 16.447 3 15.7645C3 15.4236 3.4774 15.1233 3.7 14.9L4.4007 14.2L8.6007 10L4.4007 5.8L3.7 5.1C3.4774 4.8767 3 4.5764 3 4.2355C3 3.553 3.553 3 4.2355 3C4.5764 3 4.8767 3.4767 5.1 3.7007L5.8 4.4L10 8.6L14.2 4.4L14.9007 3.7007C15.124 3.4767 15.4236 3 15.7652 3C16.4477 3 17 3.553 17 4.2355C17 4.5764 16.5233 4.8767 16.3 5.1L15.6 5.8Z" fill="#475467"/>
</svg>
