<svg width="16" height="16" viewBox="0 0 16 16" fill="none" xmlns="http://www.w3.org/2000/svg">
<g id="Close">
<path id="Close-v2" fill-rule="evenodd" clip-rule="evenodd" d="M12.4784 4.64002L9.119 8.00002L12.4784 11.36L13.0384 11.92C13.2171 12.0987 13.5984 12.3389 13.5984 12.6116C13.5984 13.1576 13.1566 13.6006 12.6106 13.6006C12.3373 13.6006 12.0976 13.2187 11.919 13.04L11.3584 12.48L7.99844 9.12058L4.63844 12.48L4.07844 13.04C3.8998 13.2187 3.65956 13.6006 3.38684 13.6006C2.84084 13.6006 2.39844 13.1576 2.39844 12.6116C2.39844 12.3389 2.78036 12.0987 2.95844 11.92L3.519 11.36L6.879 8.00002L3.519 4.64002L2.95844 4.08002C2.78036 3.90138 2.39844 3.66114 2.39844 3.38842C2.39844 2.84242 2.84084 2.40002 3.38684 2.40002C3.65956 2.40002 3.8998 2.78138 4.07844 2.96058L4.63844 3.52002L7.99844 6.88002L11.3584 3.52002L11.919 2.96058C12.0976 2.78138 12.3373 2.40002 12.6106 2.40002C13.1566 2.40002 13.5984 2.84242 13.5984 3.38842C13.5984 3.66114 13.2171 3.90138 13.0384 4.08002L12.4784 4.64002Z" fill="#D92D20"/>
</g>
</svg>
