<svg width="12" height="12" viewBox="0 0 12 12" fill="none" xmlns="http://www.w3.org/2000/svg">
<g id="More">
<path id="More_2" fill-rule="evenodd" clip-rule="evenodd" d="M5.93685 7.26316C5.23817 7.26316 4.6737 6.69868 4.6737 6C4.6737 5.30132 5.23817 4.73684 5.93685 4.73684C6.63554 4.73684 7.20001 5.30132 7.20001 6C7.20001 6.69868 6.63554 7.26316 5.93685 7.26316ZM7.20001 10.7368C7.20001 10.0382 6.63554 9.47368 5.93685 9.47368C5.23817 9.47368 4.6737 10.0382 4.6737 10.7368C4.6737 11.4355 5.23817 12 5.93685 12C6.63554 12 7.20001 11.4355 7.20001 10.7368ZM7.20001 1.26316C7.20001 0.564474 6.63554 0 5.93685 0C5.23817 0 4.6737 0.564474 4.6737 1.26316C4.6737 1.96184 5.23817 2.52632 5.93685 2.52632C6.63554 2.52632 7.20001 1.96184 7.20001 1.26316Z" fill="#859BBB"/>
</g>
</svg>
