<svg width="16" height="16" viewBox="0 0 16 16" fill="none" xmlns="http://www.w3.org/2000/svg">
<g id="Question" clip-path="url(#clip0_18146_1833)">
<path id="Question_2" fill-rule="evenodd" clip-rule="evenodd" d="M7.3769 13.0754C7.20335 12.9119 7.10685 12.6827 7.11113 12.4443C7.11113 12.1954 7.20002 11.9857 7.3769 11.8132C7.55468 11.6417 7.76178 11.5555 8 11.5555C8.23822 11.5555 8.44621 11.6417 8.6231 11.8132C8.80087 11.9857 8.88887 12.1954 8.88887 12.4443C8.88887 12.6932 8.79998 12.903 8.6231 13.0754C8.45883 13.2421 8.23402 13.3351 8 13.3332C7.76598 13.3351 7.54117 13.2421 7.3769 13.0754ZM7.93067 10.6666H7.872C7.72697 10.6481 7.59556 10.5718 7.50757 10.455C7.41451 10.3378 7.37427 10.1871 7.39646 10.0391C7.4291 9.68543 7.54914 9.34547 7.74578 9.04975C7.94845 8.73598 8.23733 8.38488 8.61421 7.99822C8.91109 7.68445 9.13597 7.41157 9.28975 7.18135C9.44263 6.95114 9.53152 6.7867 9.55641 6.68714C9.58351 6.56611 9.59604 6.44227 9.59374 6.31826C9.61696 5.92005 9.47778 5.52943 9.20797 5.23563C8.88087 4.86941 8.47999 4.68631 8.00533 4.68631C7.57172 4.68083 7.15714 4.86411 6.86936 5.18852C6.55826 5.52273 6.40182 5.92094 6.40182 6.38137C6.40505 6.53005 6.34909 6.67393 6.24627 6.78136C6.14968 6.88834 6.01173 6.94858 5.86761 6.94669C5.72349 6.94858 5.58554 6.88834 5.48895 6.78136C5.38634 6.67415 5.33041 6.53064 5.3334 6.38226C5.3334 5.60806 5.59295 4.94586 6.11294 4.39654C6.63203 3.84722 7.2578 3.56722 7.99022 3.55656C8.78131 3.55656 9.4453 3.85522 9.97951 4.45165C10.4746 5.0063 10.7022 5.64984 10.6622 6.38226C10.6435 6.76471 10.5447 7.13898 10.3724 7.4809C10.1999 7.82667 9.86573 8.26577 9.37063 8.79909C8.78665 9.40619 8.48532 9.85684 8.46577 10.1502C8.4493 10.2893 8.38671 10.4188 8.28799 10.5182C8.19483 10.6155 8.06536 10.6696 7.93067 10.6675V10.6666ZM12.0159 1.0704C13.2278 1.76678 14.2332 2.77222 14.9296 3.9841C15.6403 5.20244 16.0099 6.58958 15.9998 8C16.0099 9.41042 15.6403 10.7976 14.9296 12.0159C14.2332 13.2278 13.2278 14.2332 12.0159 14.9296C10.7976 15.6403 9.41042 16.0099 8 15.9998C6.58958 16.0099 5.20244 15.6403 3.9841 14.9296C2.77222 14.2332 1.76678 13.2278 1.0704 12.0159C0.359739 10.7976 -0.00992053 9.41042 0.000202461 8C0.000202461 6.55204 0.356638 5.2134 1.0704 3.9841C1.76678 2.77222 2.77222 1.76678 3.9841 1.0704C5.20244 0.359739 6.58958 -0.00992053 8 0.000202461C9.44796 0.000202461 10.7866 0.356638 12.0159 1.0704ZM12.8594 12.8594C13.4895 12.2319 13.9934 11.4893 14.3438 10.6719C14.6976 9.82751 14.8746 8.93775 14.8746 8C14.8784 7.0812 14.6923 6.17151 14.3278 5.32807C13.9869 4.50972 13.4879 3.76667 12.8594 3.14146C12.2319 2.51136 11.4893 2.00746 10.6719 1.65705C9.82605 1.30203 8.91735 1.12095 8 1.12456C7.0812 1.12071 6.17151 1.30682 5.32807 1.67127C4.50972 2.01218 3.76667 2.51118 3.14146 3.13968C2.51136 3.76724 2.00746 4.50982 1.65705 5.32718C1.30191 6.17333 1.12083 7.08235 1.12456 8C1.12456 8.93775 1.30684 9.8284 1.67127 10.6719C2.01218 11.4903 2.51118 12.2333 3.13968 12.8585C3.76724 13.4886 4.50982 13.9925 5.32718 14.343C6.1716 14.6985 7.06136 14.8746 7.99911 14.8746C8.91792 14.8784 9.8276 14.6923 10.671 14.3278C11.4894 13.9869 12.2324 13.4879 12.8577 12.8594H12.8594Z" fill="#475467"/>
</g>
<defs>
<clipPath id="clip0_18146_1833">
<rect width="16" height="16" fill="white"/>
</clipPath>
</defs>
</svg>
