<svg width="20" height="20" viewBox="0 0 20 20" fill="none" xmlns="http://www.w3.org/2000/svg">
<g clip-path="url(#clip0_2_3361)">
<path fill-rule="evenodd" clip-rule="evenodd" d="M19.7973 19.7973C19.5307 19.9973 19.1974 20.064 18.9308 19.9306L14.2647 15.2646C13.9315 15.1979 15.0646 13.9981 15.2646 14.2647L19.9306 18.9308C20.064 19.1974 19.9973 19.5307 19.7973 19.7973ZM8.6655 17.331C3.86614 17.331 0 13.4648 0 8.6655C0 3.86614 3.86614 0 8.6655 0C13.4648 0 17.331 3.86614 17.331 8.6655C17.3976 13.3982 13.5982 17.2643 8.79881 17.331H8.6655ZM8.6655 1.33315C4.33275 1.33315 1.33315 4.26609 1.33315 8.6655C1.33315 13.0649 4.33275 15.9978 8.6655 15.9978C12.9982 15.9978 15.9978 12.9982 15.9978 8.6655C15.9978 4.33275 12.9982 1.33315 8.6655 1.33315Z" fill="#475467"/>
</g>
<defs>
<clipPath id="clip0_2_3361">
<rect width="20" height="20" fill="white"/>
</clipPath>
</defs>
</svg>
