<svg width="20" height="20" viewBox="0 0 20 20" fill="none" xmlns="http://www.w3.org/2000/svg">
<path d="M17.4381 0C18.8533 0 20.0011 1.14861 19.9986 2.56214V8.35361C19.9986 9.02798 19.7329 9.67589 19.2602 10.1537L10.2979 19.2507C9.83927 19.7088 9.25016 19.9568 8.65023 19.9948L8.48643 20C7.83089 19.9998 7.17541 19.7496 6.67527 19.2495L0.748669 13.3229C-0.250761 12.3222 -0.250365 10.7005 0.754723 9.69546L9.84516 0.739725C10.3243 0.265671 10.9722 0 11.6466 0H17.4381ZM17.4381 1.81818H11.6466C11.4505 1.81818 11.2623 1.89537 11.1225 2.0336L2.03556 10.9859C1.74505 11.2764 1.74494 11.7475 2.03473 12.0377L7.96092 17.9638C8.10617 18.1091 8.29657 18.1818 8.48633 18.1825L8.58095 18.1768C8.73785 18.1575 8.889 18.0882 9.00791 17.9695L17.9663 8.87635C18.1032 8.73797 18.1804 8.54972 18.1804 8.35361V2.5605C18.1811 2.15122 17.8483 1.81818 17.4381 1.81818ZM14.9585 4.13263C15.4606 4.13263 15.8676 4.53964 15.8676 5.04172C15.8676 5.51561 15.5166 5.90041 15.0645 5.95296L14.9585 5.95908C14.4564 5.95908 14.0494 5.55206 14.0494 5.04999C14.0494 4.53964 14.4564 4.13263 14.9585 4.13263Z" fill="#475467"/>
</svg>
