<svg width="16" height="16" viewBox="0 0 16 16" fill="none" xmlns="http://www.w3.org/2000/svg">
<g id="Trash">
<path id="Trash_2" fill-rule="evenodd" clip-rule="evenodd" d="M13.6008 5.33333V13.8667C13.6008 15.0449 12.6457 16 11.4674 16H4.00078C2.82257 16 1.86745 15.0449 1.86745 13.8667V5.33333C1.27834 5.33333 0.800781 4.85577 0.800781 4.26667V3.2C0.800781 2.6109 1.27834 2.13333 1.86745 2.13333H5.06745V1.06667C5.06745 0.477563 5.54501 0 6.13411 0H9.33411C9.92322 0 10.4008 0.477563 10.4008 1.06667V2.13333H13.6008C14.1899 2.13333 14.6674 2.6109 14.6674 3.2V4.26667C14.6674 4.85577 14.1899 5.33333 13.6008 5.33333ZM2.93411 5.33333V13.8667C2.93411 14.4558 3.41168 14.9333 4.00078 14.9333H11.4674C12.0566 14.9333 12.5341 14.4558 12.5341 13.8667V5.33333H2.93411ZM6.13411 2.13333V1.6C6.13411 1.30545 6.3729 1.06667 6.66745 1.06667H8.80078C9.09533 1.06667 9.33411 1.30545 9.33411 1.6V2.13333H6.13411ZM13.0674 3.2H2.40078C2.10623 3.2 1.86745 3.43878 1.86745 3.73333C1.86745 4.02789 2.10623 4.26667 2.40078 4.26667H13.0674C13.362 4.26667 13.6008 4.02789 13.6008 3.73333C13.6008 3.43878 13.362 3.2 13.0674 3.2ZM5.06745 6.93333C5.362 6.93333 5.60078 7.17211 5.60078 7.46667V12.8C5.60078 13.0946 5.362 13.3333 5.06745 13.3333C4.7729 13.3333 4.53411 13.0946 4.53411 12.8V7.46667C4.53411 7.17211 4.7729 6.93333 5.06745 6.93333ZM7.73411 6.93333C8.02867 6.93333 8.26745 7.17211 8.26745 7.46667V12.8C8.26745 13.0946 8.02867 13.3333 7.73411 13.3333C7.43956 13.3333 7.20078 13.0946 7.20078 12.8V7.46667C7.20078 7.17211 7.43956 6.93333 7.73411 6.93333ZM10.4008 6.93333C10.6953 6.93333 10.9341 7.17211 10.9341 7.46667V12.8C10.9341 13.0946 10.6953 13.3333 10.4008 13.3333C10.1062 13.3333 9.86745 13.0946 9.86745 12.8V7.46667C9.86745 7.17211 10.1062 6.93333 10.4008 6.93333Z" fill="#D92D20"/>
</g>
</svg>
