<svg width="16" height="16" viewBox="0 0 16 16" fill="none" xmlns="http://www.w3.org/2000/svg">
<g id="Archive v2" clip-path="url(#clip0_10271_52927)">
<path id="Union" fill-rule="evenodd" clip-rule="evenodd" d="M0.707107 -1.44839e-05L0 0.707092L2.67902 3.38611L0 6.40001V12.2667C0.0259618 13.434 0.966049 14.374 2.13333 14.4H13.6929L15.2818 15.9889L15.9889 15.2818L0.707107 -1.44839e-05ZM12.6262 13.3333L9.55888 10.266C9.04108 10.5184 8.49033 10.6667 7.97867 10.6667C6.30933 10.6667 4.26667 9.08801 4.26667 7.46667H1.06667V12.2667C1.20601 12.7873 1.61268 13.194 2.13333 13.3333H12.6262ZM8.78323 9.49032L3.48904 4.19613L1.6 6.40001H5.33333C5.33333 8.53334 6.528 9.60001 8 9.60001C8.27252 9.60001 8.53554 9.56345 8.78323 9.49032ZM10.6667 6.40001C10.6667 7.25225 10.476 7.93427 10.1532 8.44605L10.9445 9.23739C11.4224 8.71247 11.7333 8.09275 11.7333 7.46667H14.9333V12.2667C14.8704 12.5018 14.753 12.7136 14.5952 12.8881L15.414 13.7068C15.7675 13.3281 15.9876 12.8232 16 12.2667V6.42134L11.7333 1.60001H4.26667L3.81512 2.108L4.60329 2.89617L4.8 2.66667H11.2L14.4 6.40001H10.6667Z" fill="#475467"/>
</g>
<defs>
<clipPath id="clip0_10271_52927">
<rect width="16" height="16" fill="white"/>
</clipPath>
</defs>
</svg>
