<svg width="20" height="20" viewBox="0 0 20 20" fill="none" xmlns="http://www.w3.org/2000/svg">
<g clip-path="url(#clip0_2_3785)">
<path fill-rule="evenodd" clip-rule="evenodd" d="M17.0707 2.92866C13.1658 -0.976219 6.83437 -0.976219 2.92866 2.92866C-0.976219 6.83437 -0.976219 13.165 2.92866 17.0707C6.83354 20.9764 13.165 20.9756 17.0707 17.0707C20.9764 13.165 20.9764 6.83354 17.0707 2.92866ZM14.1666 10.8326H5.83357C5.60357 10.8326 5.39525 10.7392 5.24442 10.5884C5.09359 10.4376 5.00026 10.2293 5.00026 9.99927C5.00026 9.53928 5.37358 9.16596 5.83357 9.16596H14.1666C14.6266 9.16596 14.9999 9.53928 14.9999 9.99927C14.9999 10.4601 14.6275 10.8326 14.1666 10.8326Z" fill="#475467"/>
</g>
<defs>
<clipPath id="clip0_2_3785">
<rect width="20" height="20" fill="white"/>
</clipPath>
</defs>
</svg>
