<svg width="20" height="20" viewBox="0 0 20 20" fill="none" xmlns="http://www.w3.org/2000/svg">
<g clip-path="url(#clip0_2_3864)">
<circle cx="10" cy="10" r="10" fill="white"/>
<path fill-rule="evenodd" clip-rule="evenodd" d="M10 0C4.47715 0 0 4.47715 0 10C0 15.5228 4.47715 20 10 20C15.5228 20 20 15.5228 20 10C20 4.47715 15.5228 0 10 0ZM15.7117 7.62333L8.43333 14.84C8.2446 15.0286 7.93873 15.0286 7.75 14.84L4.28667 11.3467C4.09851 11.1575 4.09925 10.8516 4.28833 10.6633L4.63333 10.3217C4.82252 10.1335 5.1284 10.1343 5.31667 10.3233L8.1 13.13L14.69 6.59167C14.8796 6.40397 15.1855 6.40546 15.3733 6.595L15.715 6.93833C15.9032 7.12752 15.9024 7.4334 15.7133 7.62167L15.7117 7.62333Z" fill="#475467"/>
</g>
<defs>
<clipPath id="clip0_2_3864">
<rect width="20" height="20" fill="white"/>
</clipPath>
</defs>
</svg>
