<svg width="20" height="20" viewBox="0 0 20 20" fill="none" xmlns="http://www.w3.org/2000/svg">
<g clip-path="url(#clip0_2_3866)">
<path fill-rule="evenodd" clip-rule="evenodd" d="M10 0C4.46667 0 0 4.46667 0 10C0 15.5333 4.46667 20 10 20C15.5333 20 20 15.5333 20 10C20 4.46667 15.5333 0 10 0ZM8 14.4667C8 14.2667 8 14.0667 8.06667 13.8667C8.06667 13.6667 8.13333 13.1333 8.2 12.8667L9.06667 10.6667C9.13333 10.4667 9.2 10.2 9.2 10C9.26667 9.86667 9.26667 9.73333 9.26667 9.6C9.26667 9.33333 9.13333 9.13333 8.93333 8.93333C8.6 8.8 8.26667 8.73333 7.93333 8.73333C7.73333 8.73333 7.6 8.73333 7.4 8.8C7.2 8.86667 7.06667 8.93333 6.93333 8.93333L7 8.06667C7.4 7.86667 8.2 7.6 8.6 7.46667C8.93333 7.33333 9.33333 7.26667 9.66667 7.26667C10.2 7.26667 10.6667 7.4 11.0667 7.73333C11.4667 8.06667 11.7333 8.53333 11.8 9.06667C11.8 9.13333 11.8 9.33333 11.7333 9.6C11.7333 9.86667 11.6667 10.0667 11.6 10.3333L10.8667 12.6667C10.8 12.8667 10.7333 13.1333 10.7333 13.3333C10.6667 13.6 10.6667 13.8667 10.6667 14.2C10.6667 14.4667 10.7333 14.6667 10.8667 14.8667C11 15.0667 11.2667 15.1333 11.4667 15.1333C11.7333 15.2 12.0667 15.1333 12.3333 15L12.1333 15.7333C11.8 15.8667 11.4667 15.9333 11.0667 16C10.7333 16.1333 10.3333 16.2 10 16.2C9.46667 16.2 8.93333 16.0667 8.53333 15.7333C8.26667 15.4 8 14.9333 8 14.4667ZM12.5333 5.86667L12.3333 6.06667C11.7333 6.53333 10.8667 6.46667 10.4 5.86667C10.1333 5.6 9.93333 5.2 9.93333 4.8C9.93333 4.4 10.0667 4 10.4 3.73333C10.6667 3.46667 11.0667 3.26667 11.4667 3.26667C11.8667 3.26667 12.2667 3.4 12.5333 3.73333C12.8 4.06667 13 4.46667 13 4.86667C13 5.2 12.8667 5.53333 12.5333 5.86667Z" fill="#475467"/>
</g>
<defs>
<clipPath id="clip0_2_3866">
<rect width="20" height="20" fill="white"/>
</clipPath>
</defs>
</svg>
