<svg width="20" height="20" viewBox="0 0 20 20" fill="none" xmlns="http://www.w3.org/2000/svg">
<g clip-path="url(#clip0_2_3783)">
<path fill-rule="evenodd" clip-rule="evenodd" d="M10 0C4.4775 0 0 4.4775 0 10C0 15.525 4.4775 20 10 20C15.5225 20 20 15.525 20 10C20 4.4775 15.5225 0 10 0ZM9.16667 5C9.16667 4.54 9.54 4.16667 10 4.16667C10.46 4.16667 10.8333 4.53917 10.8333 5V10.8333C10.8333 11.2933 10.46 11.6667 10 11.6667C9.54 11.6667 9.16667 11.2942 9.16667 10.8333V5ZM10 15.8333C9.31 15.8333 8.75 15.2733 8.75 14.5833C8.75 13.8933 9.31 13.3333 10 13.3333C10.69 13.3333 11.25 13.8933 11.25 14.5833C11.25 15.2733 10.69 15.8333 10 15.8333Z" fill="#475467"/>
</g>
<defs>
<clipPath id="clip0_2_3783">
<rect width="20" height="20" fill="white"/>
</clipPath>
</defs>
</svg>
